<svg xmlns="http://www.w3.org/2000/svg" version="1.1" viewBox="0.00 0.00 425.00 433.00" width="32" height="33">
<g stroke-width="2.00" fill="none" stroke-linecap="butt">
<path stroke="#74a204" vector-effect="non-scaling-stroke" d="
  M 265.91 133.09
  L 254.06 123.50"></path>
<path stroke="#be8e22" vector-effect="non-scaling-stroke" d="
  M 254.06 123.50
  Q 238.64 110.31 220.42 108.64"></path>
<path stroke="#bea02c" vector-effect="non-scaling-stroke" d="
  M 220.42 108.64
  Q 201.74 104.82 184.20 109.59
  Q 181.50 110.32 177.48 111.99
  Q 172.98 113.84 171.05 115.12
  Q 168.83 116.58 162.80 120.67
  C 160.31 122.35 158.30 124.44 156.39 125.88
  Q 155.04 126.91 152.18 130.41
  Q 149.63 133.54 147.94 135.53
  A 0.54 0.53 45.3 0 1 147.12 135.52
  Q 147.09 135.49 147.10 135.02"></path>
<path stroke="#74a204" vector-effect="non-scaling-stroke" d="
  M 279.01 154.89
  Q 281.19 164.28 281.68 169.50
  C 284.38 198.86 270.67 224.19 244.73 237.67
  Q 226.19 247.30 203.85 245.16
  C 199.18 244.71 193.27 243.27 187.97 242.46"></path>
<path stroke="#fe7c48" vector-effect="non-scaling-stroke" d="
  M 220.42 108.64
  Q 231.75 112.64 242.28 118.61
  A 1.04 0.90 -4.3 0 1 242.51 118.78
  L 253.10 128.36
  A 2.30 2.25 -83.6 0 1 253.59 128.99
  Q 256.43 134.35 260.81 138.36
  A 1.04 1.00 24.8 0 1 261.14 139.21
  Q 261.11 139.66 261.13 139.74
  Q 263.10 145.31 265.76 148.38
  A 1.05 1.01 30.5 0 1 266.00 149.24
  C 265.59 151.38 267.57 155.98 268.09 157.53
  A 1.14 1.13 85.2 0 0 268.98 158.29
  Q 273.54 159.11 274.66 159.40
  Q 275.83 159.71 275.67 160.57
  A 0.36 0.36 0.0 0 1 275.10 160.79
  Q 274.51 160.36 274.13 160.31
  Q 270.40 159.83 269.57 159.45
  A 0.74 0.74 0.0 0 0 268.53 160.23
  L 269.50 167.00
  A 1.48 1.48 0.0 0 0 270.55 168.22
  L 274.85 169.45
  A 0.17 0.17 0.0 0 1 274.95 169.69
  L 274.85 169.92
  A 0.36 0.36 0.0 0 1 274.48 170.13
  L 270.86 169.63
  A 0.92 0.91 3.9 0 0 269.82 170.53
  L 269.82 177.23
  A 1.16 1.16 0.0 0 0 270.82 178.38
  L 276.92 179.22
  A 0.32 0.32 0.0 0 1 277.19 179.63
  L 276.94 180.50
  A 0.55 0.55 0.0 0 1 276.25 180.88
  L 270.88 179.34
  A 1.13 1.12 12.1 0 0 269.45 180.26
  L 268.60 186.44
  A 1.34 1.34 0.0 0 0 269.93 187.97
  Q 271.22 187.97 273.71 188.98
  A 0.46 0.46 0.0 0 1 273.51 189.86
  Q 271.28 189.71 269.77 188.89
  A 1.30 1.30 0.0 0 0 267.91 189.67
  L 266.19 195.65
  A 0.90 0.89 16.1 0 0 266.81 196.76
  L 272.67 198.45
  A 0.29 0.28 23.1 0 1 272.84 198.87
  L 272.39 199.67
  A 0.05 0.04 -62.9 0 1 272.34 199.69
  L 266.83 198.10
  A 1.74 1.74 0.0 0 0 264.76 199.06
  L 262.49 204.03
  A 1.03 1.03 0.0 0 0 263.14 205.44
  L 267.80 206.78
  A 0.34 0.33 -86.1 0 1 268.04 207.06
  L 268.08 207.34
  A 0.68 0.68 0.0 0 1 267.23 207.95
  L 262.32 206.67
  A 1.70 1.69 21.5 0 0 260.42 207.49
  L 256.68 214.24
  A 1.11 1.10 85.5 0 1 256.39 214.58
  Q 252.86 217.28 251.10 220.92
  A 1.57 1.51 -88.9 0 1 250.37 221.65
  Q 247.07 223.24 243.78 227.02
  A 0.16 0.08 -63.4 0 1 243.74 227.05
  L 234.45 232.77
  A 6.54 5.61 -67.8 0 1 233.67 233.17
  L 223.39 237.66
  A 2.43 2.26 -58.4 0 1 222.92 237.79
  Q 220.00 238.17 213.60 239.40
  Q 212.98 239.51 212.34 239.98
  A 1.48 1.40 -62.0 0 1 211.48 240.27
  L 198.10 240.40"></path>
<path stroke="#b4902b" vector-effect="non-scaling-stroke" d="
  M 198.10 240.40
  Q 195.90 240.17 193.61 239.90
  Q 191.64 239.66 189.19 238.99
  Q 184.32 237.67 179.17 236.90"></path>
<path stroke="#b47e21" vector-effect="non-scaling-stroke" d="
  M 254.06 123.50
  L 260.47 129.81
  A 5.38 3.41 58.0 0 1 260.97 130.36
  L 267.77 138.84
  A 1.14 1.10 -77.8 0 1 267.92 139.08
  Q 269.99 143.66 272.97 148.73
  C 274.20 150.82 274.39 154.10 275.43 157.08
  C 276.53 160.19 276.33 164.10 277.55 167.66
  Q 278.02 169.02 277.92 170.76
  Q 277.72 174.08 277.90 178.26
  C 278.02 181.08 276.82 184.43 276.57 187.62
  C 276.27 191.60 274.34 195.04 273.07 199.52
  A 6.53 6.20 -23.3 0 1 272.44 200.99
  L 263.61 215.96
  A 6.10 5.96 84.1 0 1 262.57 217.27
  Q 259.81 219.92 257.22 223.21
  Q 257.01 223.47 255.77 224.12
  A 4.67 4.12 6.6 0 0 254.88 224.74
  Q 250.24 228.95 248.54 230.00
  Q 244.95 232.21 237.90 235.81
  C 234.61 237.49 231.85 237.78 228.29 239.15
  Q 227.45 239.48 225.29 239.95
  Q 220.72 240.97 215.22 241.91
  Q 208.06 243.14 198.10 240.40"></path>
<path stroke="#fe854d" vector-effect="non-scaling-stroke" d="
  M 158.70 209.71
  A 57.52 57.48 33.5 0 0 168.51 219.18"></path>
<path stroke="#fe7c48" vector-effect="non-scaling-stroke" d="
  M 168.51 219.18
  A 57.46 57.22 -6.4 0 0 176.69 224.35
  A 57.30 57.26 6.0 0 0 225.77 226.17
  A 57.29 57.25 74.3 0 0 252.64 202.42
  A 57.48 57.34 51.8 0 0 260.13 179.54"></path>
<path stroke="#fe854d" vector-effect="non-scaling-stroke" d="
  M 260.13 179.54
  A 57.67 57.33 39.8 0 0 259.67 164.23
  A 57.35 57.31 18.0 0 0 251.50 142.87
  A 57.42 57.34 81.9 0 0 238.62 128.60"></path>
<path stroke="#fe7c48" vector-effect="non-scaling-stroke" d="
  M 238.62 128.60
  A 57.32 56.94 72.7 0 0 227.34 121.66
  A 57.28 57.24 8.1 0 0 180.39 120.96
  A 57.30 57.26 36.1 0 0 152.30 147.04
  A 57.27 57.21 9.9 0 0 146.00 168.75
  A 57.36 57.27 22.6 0 0 158.70 209.71"></path>
<path stroke="#fe7343" vector-effect="non-scaling-stroke" d="
  M 238.62 128.60
  Q 235.56 127.57 232.91 126.22
  C 220.00 119.62 206.42 117.98 192.14 121.01
  Q 187.87 121.91 183.19 124.01
  C 173.86 128.19 166.45 132.84 159.81 141.03
  A 0.15 0.15 0.0 0 0 159.83 141.25
  L 159.84 141.26
  A 0.15 0.14 38.4 0 0 160.05 141.24
  Q 165.97 134.01 173.84 129.00
  A 0.24 0.24 0.0 0 1 174.17 129.07
  L 174.17 129.08
  A 0.27 0.27 0.0 0 1 174.10 129.45
  Q 145.94 148.50 149.05 182.76
  C 149.55 188.25 151.85 195.90 154.49 200.50
  Q 157.81 206.26 158.70 209.71"></path>
<path stroke="#fe7343" vector-effect="non-scaling-stroke" d="
  M 260.13 179.54
  Q 256.88 169.84 254.15 159.98
  C 253.62 158.07 252.11 154.02 249.89 153.50
  Q 248.41 153.16 247.46 154.71"></path>
<path stroke="#ffbea4" vector-effect="non-scaling-stroke" d="
  M 247.46 154.71
  Q 242.70 153.58 239.16 154.10
  A 2.58 2.56 13.7 0 0 237.47 155.12
  L 226.87 169.51
  A 0.58 0.58 0.0 0 1 225.94 169.51
  L 216.42 156.53"></path>
<path stroke="#fe854d" vector-effect="non-scaling-stroke" d="
  M 216.42 156.53
  C 223.04 148.49 218.27 137.56 210.42 132.59
  C 199.17 125.46 183.63 128.85 173.67 137.43
  C 164.81 145.04 160.42 156.76 157.90 167.57
  C 156.37 174.10 157.05 181.89 162.93 185.91"></path>
<path stroke="#ffbea4" vector-effect="non-scaling-stroke" d="
  M 162.93 185.91
  L 166.10 189.10"></path>
<path stroke="#fe854d" vector-effect="non-scaling-stroke" d="
  M 166.10 189.10
  Q 169.19 194.75 178.27 194.83
  Q 187.96 194.91 199.61 194.96
  A 0.95 0.95 0.0 0 0 200.57 194.01
  L 200.57 188.43
  A 0.43 0.42 -81.5 0 1 201.12 188.02
  Q 203.46 188.72 205.26 190.64"></path>
<path stroke="#ffbea4" vector-effect="non-scaling-stroke" d="
  M 205.26 190.64
  Q 205.98 193.90 212.43 192.94
  A 2.08 2.07 -85.8 0 0 214.12 191.48
  Q 214.65 189.68 214.67 185.75
  Q 214.70 178.67 214.74 171.15
  A 0.36 0.35 26.6 0 1 215.38 170.94
  L 223.05 181.12
  A 0.88 0.88 0.0 0 0 223.68 181.46
  Q 224.36 181.51 224.50 182.11
  A 0.59 0.57 -80.1 0 0 224.75 182.48
  Q 225.94 183.30 227.78 183.04"></path>
<path stroke="#fe7343" vector-effect="non-scaling-stroke" d="
  M 227.78 183.04
  L 225.73 183.25
  A 0.81 0.81 0.0 0 0 225.30 184.68
  C 228.91 187.60 231.90 185.43 234.08 181.77
  Q 235.41 179.53 236.99 177.88
  A 2.42 2.42 0.0 0 0 237.65 176.50
  L 238.22 172.20"></path>
<path stroke="#ffbea4" vector-effect="non-scaling-stroke" d="
  M 238.22 172.20
  L 238.38 191.72"></path>
<path stroke="#fe7343" vector-effect="non-scaling-stroke" d="
  M 238.38 191.72
  Q 220.35 201.14 212.86 204.05
  Q 201.51 208.45 193.07 209.24
  Q 185.71 209.93 178.40 210.93
  Q 170.86 211.96 168.51 219.18"></path>
<path stroke="#ffc7a9" vector-effect="non-scaling-stroke" d="
  M 216.42 156.53
  Q 215.11 153.90 212.34 153.98
  C 209.13 154.07 205.17 153.04 205.27 157.50
  Q 205.45 166.12 205.26 190.64"></path>
<path stroke="#ffc7a9" vector-effect="non-scaling-stroke" d="
  M 166.10 189.10
  Q 171.36 192.16 175.02 192.18
  Q 186.78 192.27 196.92 192.19
  A 0.79 0.79 0.0 0 0 197.71 191.40
  L 197.71 185.97
  A 0.45 0.45 0.0 0 0 197.26 185.52
  L 191.87 185.52
  A 0.31 0.31 0.0 0 1 191.61 185.05
  Q 199.08 172.57 190.22 161.69
  A 4.40 4.28 -0.7 0 0 189.42 160.93
  Q 187.62 159.61 186.46 158.59
  C 182.32 154.94 177.33 155.43 172.06 155.80
  A 0.10 0.10 0.0 0 0 172.04 156.00
  L 172.29 156.05
  A 0.04 0.04 0.0 0 1 172.30 156.12
  Q 171.17 156.69 170.21 156.65
  A 0.70 0.69 8.3 0 0 169.51 157.17
  Q 169.38 157.66 168.83 157.63
  Q 168.50 157.61 167.80 157.93
  Q 166.37 158.60 165.34 159.14
  A 0.68 0.59 -80.0 0 0 165.13 159.31
  L 162.45 162.40
  A 1.52 1.34 -14.9 0 0 162.31 162.61
  C 161.17 165.10 159.82 166.94 159.28 169.84
  Q 157.60 178.81 162.93 185.91"></path>
<path stroke="#ffb59f" vector-effect="non-scaling-stroke" d="
  M 238.38 191.72
  C 239.80 193.79 244.55 193.36 246.33 192.73
  A 1.20 1.18 -87.4 0 0 247.02 192.09
  Q 247.73 190.54 247.75 188.75
  Q 247.99 171.79 247.46 154.71"></path>
<path stroke="#ffb59f" vector-effect="non-scaling-stroke" d="
  M 238.22 172.20
  L 238.25 171.02
  A 0.39 0.39 0.0 0 0 237.55 170.78
  C 234.38 174.99 232.19 179.70 227.78 183.04"></path>
<path stroke="#ffc7a9" vector-effect="non-scaling-stroke" d="
  M 187.1224 173.7238
  A 10.32 10.20 -2.2 0 0 176.4184 163.9275
  A 10.32 10.20 -2.2 0 0 166.4976 174.5162
  A 10.32 10.20 -2.2 0 0 177.2016 184.3125
  A 10.32 10.20 -2.2 0 0 187.1224 173.7238"></path>
</g>
<path fill="#7db205" d="
  M 217.97 405.84
  Q 215.77 405.27 214.58 403.69
  Q 168.56 342.46 128.39 284.61
  Q 122.76 276.50 113.83 262.61
  C 105.95 250.35 100.15 239.09 92.70 225.55
  C 74.74 192.92 72.23 153.35 85.20 118.42
  C 102.20 72.65 143.33 40.02 191.74 33.94
  Q 216.16 30.87 239.96 36.90
  C 270.28 44.57 297.13 62.97 315.14 88.64
  Q 320.20 95.84 325.66 106.31
  C 329.80 114.26 334.91 122.23 338.57 130.55
  C 356.01 170.21 353.25 213.81 331.31 251.08
  Q 323.71 263.99 313.92 278.42
  C 285.36 320.49 256.38 359.75 224.64 402.26
  C 222.87 404.62 220.81 406.59 217.97 405.84
  Z
  M 273.71 64.36
  Q 268.75 60.58 265.07 58.63
  Q 237.01 43.76 204.97 44.04
  C 201.65 44.07 198.86 44.80 195.73 44.93
  Q 193.42 45.03 188.81 45.80
  Q 156.70 51.17 131.62 71.84
  C 109.37 90.19 94.31 116.76 89.95 144.97
  Q 87.82 158.78 88.19 169.26
  A 0.36 0.35 59.4 0 0 88.85 169.43
  Q 88.92 169.30 88.74 168.97
  Q 88.56 168.64 88.66 167.95
  Q 89.25 163.94 91.52 154.23
  C 100.82 114.60 127.15 82.33 163.83 65.12
  C 191.13 52.31 222.99 49.26 252.71 57.34
  Q 262.43 59.99 273.59 64.57
  A 0.12 0.12 0.0 0 0 273.71 64.36
  Z
  M 207.64 369.99
  A 0.73 0.73 0.0 0 0 208.65 369.84
  Q 249.34 316.11 288.46 259.71
  Q 296.16 248.62 307.89 229.92
  C 319.54 211.35 326.27 192.16 327.06 170.43
  Q 327.56 156.55 326.31 146.49
  Q 325.01 135.98 320.53 123.03
  C 318.74 117.84 315.79 113.31 312.53 109.21
  C 284.90 74.45 239.92 58.04 196.65 66.36
  C 144.12 76.45 105.52 119.19 99.96 172.23
  C 98.47 186.50 99.98 201.39 103.49 214.98
  Q 107.07 228.84 114.99 240.75
  Q 130.19 263.62 144.83 284.16
  Q 177.35 329.78 206.92 369.32
  Q 207.16 369.64 207.64 369.99
  Z
  M 338.69 177.36
  A 0.33 0.32 4.5 0 0 338.34 177.65
  Q 334.78 207.74 318.86 233.62
  Q 306.55 253.65 292.80 273.32
  Q 255.44 326.77 214.28 381.34
  A 2.68 2.68 0.0 0 0 214.28 384.58
  L 217.86 389.34
  A 1.42 1.41 -45.1 0 0 220.12 389.33
  C 249.96 349.32 280.06 308.51 307.86 267.12
  Q 317.48 252.81 324.24 240.51
  C 332.48 225.54 337.26 208.72 338.30 191.31
  Q 338.63 185.82 339.01 177.70
  A 0.33 0.33 0.0 0 0 338.71 177.36
  L 338.69 177.36
  Z"></path>
<path fill="#7db205" d="
  M 265.91 133.09
  L 254.06 123.50
  Q 238.64 110.31 220.42 108.64
  Q 201.74 104.82 184.20 109.59
  Q 181.50 110.32 177.48 111.99
  Q 172.98 113.84 171.05 115.12
  Q 168.83 116.58 162.80 120.67
  C 160.31 122.35 158.30 124.44 156.39 125.88
  Q 155.04 126.91 152.18 130.41
  Q 149.63 133.54 147.94 135.53
  A 0.54 0.53 45.3 0 1 147.12 135.52
  Q 147.09 135.49 147.10 135.02
  C 155.94 115.74 173.15 102.96 193.72 98.44
  C 196.24 97.88 198.72 98.05 201.37 97.25
  A 4.08 3.92 34.1 0 1 202.42 97.07
  C 206.03 96.96 211.81 96.51 214.70 97.59
  Q 214.93 97.68 218.33 98.11
  Q 220.19 98.35 221.92 98.75
  Q 237.20 102.25 250.14 112.84
  Q 260.28 121.13 265.91 133.09
  Z"></path>
<path fill="#fe8e52" d="
  M 220.42 108.64
  Q 231.75 112.64 242.28 118.61
  A 1.04 0.90 -4.3 0 1 242.51 118.78
  L 253.10 128.36
  A 2.30 2.25 -83.6 0 1 253.59 128.99
  Q 256.43 134.35 260.81 138.36
  A 1.04 1.00 24.8 0 1 261.14 139.21
  Q 261.11 139.66 261.13 139.74
  Q 263.10 145.31 265.76 148.38
  A 1.05 1.01 30.5 0 1 266.00 149.24
  C 265.59 151.38 267.57 155.98 268.09 157.53
  A 1.14 1.13 85.2 0 0 268.98 158.29
  Q 273.54 159.11 274.66 159.40
  Q 275.83 159.71 275.67 160.57
  A 0.36 0.36 0.0 0 1 275.10 160.79
  Q 274.51 160.36 274.13 160.31
  Q 270.40 159.83 269.57 159.45
  A 0.74 0.74 0.0 0 0 268.53 160.23
  L 269.50 167.00
  A 1.48 1.48 0.0 0 0 270.55 168.22
  L 274.85 169.45
  A 0.17 0.17 0.0 0 1 274.95 169.69
  L 274.85 169.92
  A 0.36 0.36 0.0 0 1 274.48 170.13
  L 270.86 169.63
  A 0.92 0.91 3.9 0 0 269.82 170.53
  L 269.82 177.23
  A 1.16 1.16 0.0 0 0 270.82 178.38
  L 276.92 179.22
  A 0.32 0.32 0.0 0 1 277.19 179.63
  L 276.94 180.50
  A 0.55 0.55 0.0 0 1 276.25 180.88
  L 270.88 179.34
  A 1.13 1.12 12.1 0 0 269.45 180.26
  L 268.60 186.44
  A 1.34 1.34 0.0 0 0 269.93 187.97
  Q 271.22 187.97 273.71 188.98
  A 0.46 0.46 0.0 0 1 273.51 189.86
  Q 271.28 189.71 269.77 188.89
  A 1.30 1.30 0.0 0 0 267.91 189.67
  L 266.19 195.65
  A 0.90 0.89 16.1 0 0 266.81 196.76
  L 272.67 198.45
  A 0.29 0.28 23.1 0 1 272.84 198.87
  L 272.39 199.67
  A 0.05 0.04 -62.9 0 1 272.34 199.69
  L 266.83 198.10
  A 1.74 1.74 0.0 0 0 264.76 199.06
  L 262.49 204.03
  A 1.03 1.03 0.0 0 0 263.14 205.44
  L 267.80 206.78
  A 0.34 0.33 -86.1 0 1 268.04 207.06
  L 268.08 207.34
  A 0.68 0.68 0.0 0 1 267.23 207.95
  L 262.32 206.67
  A 1.70 1.69 21.5 0 0 260.42 207.49
  L 256.68 214.24
  A 1.11 1.10 85.5 0 1 256.39 214.58
  Q 252.86 217.28 251.10 220.92
  A 1.57 1.51 -88.9 0 1 250.37 221.65
  Q 247.07 223.24 243.78 227.02
  A 0.16 0.08 -63.4 0 1 243.74 227.05
  L 234.45 232.77
  A 6.54 5.61 -67.8 0 1 233.67 233.17
  L 223.39 237.66
  A 2.43 2.26 -58.4 0 1 222.92 237.79
  Q 220.00 238.17 213.60 239.40
  Q 212.98 239.51 212.34 239.98
  A 1.48 1.40 -62.0 0 1 211.48 240.27
  L 198.10 240.40
  Q 195.90 240.17 193.61 239.90
  Q 191.64 239.66 189.19 238.99
  Q 184.32 237.67 179.17 236.90
  Q 166.94 230.76 158.55 223.21
  Q 147.26 213.05 141.54 198.94
  Q 137.68 189.45 137.06 181.57
  C 136.80 178.28 135.89 174.16 136.35 171.81
  Q 137.20 167.49 137.04 163.91
  A 3.77 3.72 -34.7 0 1 137.36 162.22
  Q 138.13 160.47 138.04 158.78
  C 137.95 157.15 139.22 156.68 139.05 155.04
  A 1.34 1.33 -37.1 0 1 139.14 154.42
  L 147.10 135.02
  Q 147.09 135.49 147.12 135.52
  A 0.54 0.53 45.3 0 0 147.94 135.53
  Q 149.63 133.54 152.18 130.41
  Q 155.04 126.91 156.39 125.88
  C 158.30 124.44 160.31 122.35 162.80 120.67
  Q 168.83 116.58 171.05 115.12
  Q 172.98 113.84 177.48 111.99
  Q 181.50 110.32 184.20 109.59
  Q 201.74 104.82 220.42 108.64
  Z
  M 158.70 209.71
  A 57.52 57.48 33.5 0 0 168.51 219.18
  A 57.46 57.22 -6.4 0 0 176.69 224.35
  A 57.30 57.26 6.0 0 0 225.77 226.17
  A 57.29 57.25 74.3 0 0 252.64 202.42
  A 57.48 57.34 51.8 0 0 260.13 179.54
  A 57.67 57.33 39.8 0 0 259.67 164.23
  A 57.35 57.31 18.0 0 0 251.50 142.87
  A 57.42 57.34 81.9 0 0 238.62 128.60
  A 57.32 56.94 72.7 0 0 227.34 121.66
  A 57.28 57.24 8.1 0 0 180.39 120.96
  A 57.30 57.26 36.1 0 0 152.30 147.04
  A 57.27 57.21 9.9 0 0 146.00 168.75
  A 57.36 57.27 22.6 0 0 158.70 209.71
  Z"></path>
<path fill="#fe6a3e" d="
  M 254.06 123.50
  L 260.47 129.81
  A 5.38 3.41 58.0 0 1 260.97 130.36
  L 267.77 138.84
  A 1.14 1.10 -77.8 0 1 267.92 139.08
  Q 269.99 143.66 272.97 148.73
  C 274.20 150.82 274.39 154.10 275.43 157.08
  C 276.53 160.19 276.33 164.10 277.55 167.66
  Q 278.02 169.02 277.92 170.76
  Q 277.72 174.08 277.90 178.26
  C 278.02 181.08 276.82 184.43 276.57 187.62
  C 276.27 191.60 274.34 195.04 273.07 199.52
  A 6.53 6.20 -23.3 0 1 272.44 200.99
  L 263.61 215.96
  A 6.10 5.96 84.1 0 1 262.57 217.27
  Q 259.81 219.92 257.22 223.21
  Q 257.01 223.47 255.77 224.12
  A 4.67 4.12 6.6 0 0 254.88 224.74
  Q 250.24 228.95 248.54 230.00
  Q 244.95 232.21 237.90 235.81
  C 234.61 237.49 231.85 237.78 228.29 239.15
  Q 227.45 239.48 225.29 239.95
  Q 220.72 240.97 215.22 241.91
  Q 208.06 243.14 198.10 240.40
  L 211.48 240.27
  A 1.48 1.40 -62.0 0 0 212.34 239.98
  Q 212.98 239.51 213.60 239.40
  Q 220.00 238.17 222.92 237.79
  A 2.43 2.26 -58.4 0 0 223.39 237.66
  L 233.67 233.17
  A 6.54 5.61 -67.8 0 0 234.45 232.77
  L 243.74 227.05
  A 0.16 0.08 -63.4 0 0 243.78 227.02
  Q 247.07 223.24 250.37 221.65
  A 1.57 1.51 -88.9 0 0 251.10 220.92
  Q 252.86 217.28 256.39 214.58
  A 1.11 1.10 85.5 0 0 256.68 214.24
  L 260.42 207.49
  A 1.70 1.69 21.5 0 1 262.32 206.67
  L 267.23 207.95
  A 0.68 0.68 0.0 0 0 268.08 207.34
  L 268.04 207.06
  A 0.34 0.33 -86.1 0 0 267.80 206.78
  L 263.14 205.44
  A 1.03 1.03 0.0 0 1 262.49 204.03
  L 264.76 199.06
  A 1.74 1.74 0.0 0 1 266.83 198.10
  L 272.34 199.69
  A 0.05 0.04 -62.9 0 0 272.39 199.67
  L 272.84 198.87
  A 0.29 0.28 23.1 0 0 272.67 198.45
  L 266.81 196.76
  A 0.90 0.89 16.1 0 1 266.19 195.65
  L 267.91 189.67
  A 1.30 1.30 0.0 0 1 269.77 188.89
  Q 271.28 189.71 273.51 189.86
  A 0.46 0.46 0.0 0 0 273.71 188.98
  Q 271.22 187.97 269.93 187.97
  A 1.34 1.34 0.0 0 1 268.60 186.44
  L 269.45 180.26
  A 1.13 1.12 12.1 0 1 270.88 179.34
  L 276.25 180.88
  A 0.55 0.55 0.0 0 0 276.94 180.50
  L 277.19 179.63
  A 0.32 0.32 0.0 0 0 276.92 179.22
  L 270.82 178.38
  A 1.16 1.16 0.0 0 1 269.82 177.23
  L 269.82 170.53
  A 0.92 0.91 3.9 0 1 270.86 169.63
  L 274.48 170.13
  A 0.36 0.36 0.0 0 0 274.85 169.92
  L 274.95 169.69
  A 0.17 0.17 0.0 0 0 274.85 169.45
  L 270.55 168.22
  A 1.48 1.48 0.0 0 1 269.50 167.00
  L 268.53 160.23
  A 0.74 0.74 0.0 0 1 269.57 159.45
  Q 270.40 159.83 274.13 160.31
  Q 274.51 160.36 275.10 160.79
  A 0.36 0.36 0.0 0 0 275.67 160.57
  Q 275.83 159.71 274.66 159.40
  Q 273.54 159.11 268.98 158.29
  A 1.14 1.13 85.2 0 1 268.09 157.53
  C 267.57 155.98 265.59 151.38 266.00 149.24
  A 1.05 1.01 30.5 0 0 265.76 148.38
  Q 263.10 145.31 261.13 139.74
  Q 261.11 139.66 261.14 139.21
  A 1.04 1.00 24.8 0 0 260.81 138.36
  Q 256.43 134.35 253.59 128.99
  A 2.30 2.25 -83.6 0 0 253.10 128.36
  L 242.51 118.78
  A 1.04 0.90 -4.3 0 0 242.28 118.61
  Q 231.75 112.64 220.42 108.64
  Q 238.64 110.31 254.06 123.50
  Z"></path>
<path fill="#fe6a3e" d="
  M 238.62 128.60
  Q 235.56 127.57 232.91 126.22
  C 220.00 119.62 206.42 117.98 192.14 121.01
  Q 187.87 121.91 183.19 124.01
  C 173.86 128.19 166.45 132.84 159.81 141.03
  A 0.15 0.15 0.0 0 0 159.83 141.25
  L 159.84 141.26
  A 0.15 0.14 38.4 0 0 160.05 141.24
  Q 165.97 134.01 173.84 129.00
  A 0.24 0.24 0.0 0 1 174.17 129.07
  L 174.17 129.08
  A 0.27 0.27 0.0 0 1 174.10 129.45
  Q 145.94 148.50 149.05 182.76
  C 149.55 188.25 151.85 195.90 154.49 200.50
  Q 157.81 206.26 158.70 209.71
  A 57.36 57.27 22.6 0 1 146.00 168.75
  A 57.27 57.21 9.9 0 1 152.30 147.04
  A 57.30 57.26 36.1 0 1 180.39 120.96
  A 57.28 57.24 8.1 0 1 227.34 121.66
  A 57.32 56.94 72.7 0 1 238.62 128.60
  Z"></path>
<path fill="#fe7c48" d="
  M 238.62 128.60
  A 57.42 57.34 81.9 0 1 251.50 142.87
  A 57.35 57.31 18.0 0 1 259.67 164.23
  A 57.67 57.33 39.8 0 1 260.13 179.54
  Q 256.88 169.84 254.15 159.98
  C 253.62 158.07 252.11 154.02 249.89 153.50
  Q 248.41 153.16 247.46 154.71
  Q 242.70 153.58 239.16 154.10
  A 2.58 2.56 13.7 0 0 237.47 155.12
  L 226.87 169.51
  A 0.58 0.58 0.0 0 1 225.94 169.51
  L 216.42 156.53
  C 223.04 148.49 218.27 137.56 210.42 132.59
  C 199.17 125.46 183.63 128.85 173.67 137.43
  C 164.81 145.04 160.42 156.76 157.90 167.57
  C 156.37 174.10 157.05 181.89 162.93 185.91
  L 166.10 189.10
  Q 169.19 194.75 178.27 194.83
  Q 187.96 194.91 199.61 194.96
  A 0.95 0.95 0.0 0 0 200.57 194.01
  L 200.57 188.43
  A 0.43 0.42 -81.5 0 1 201.12 188.02
  Q 203.46 188.72 205.26 190.64
  Q 205.98 193.90 212.43 192.94
  A 2.08 2.07 -85.8 0 0 214.12 191.48
  Q 214.65 189.68 214.67 185.75
  Q 214.70 178.67 214.74 171.15
  A 0.36 0.35 26.6 0 1 215.38 170.94
  L 223.05 181.12
  A 0.88 0.88 0.0 0 0 223.68 181.46
  Q 224.36 181.51 224.50 182.11
  A 0.59 0.57 -80.1 0 0 224.75 182.48
  Q 225.94 183.30 227.78 183.04
  L 225.73 183.25
  A 0.81 0.81 0.0 0 0 225.30 184.68
  C 228.91 187.60 231.90 185.43 234.08 181.77
  Q 235.41 179.53 236.99 177.88
  A 2.42 2.42 0.0 0 0 237.65 176.50
  L 238.22 172.20
  L 238.38 191.72
  Q 220.35 201.14 212.86 204.05
  Q 201.51 208.45 193.07 209.24
  Q 185.71 209.93 178.40 210.93
  Q 170.86 211.96 168.51 219.18
  A 57.52 57.48 33.5 0 1 158.70 209.71
  Q 157.81 206.26 154.49 200.50
  C 151.85 195.90 149.55 188.25 149.05 182.76
  Q 145.94 148.50 174.10 129.45
  A 0.27 0.27 0.0 0 0 174.17 129.08
  L 174.17 129.07
  A 0.24 0.24 0.0 0 0 173.84 129.00
  Q 165.97 134.01 160.05 141.24
  A 0.15 0.14 38.4 0 1 159.84 141.26
  L 159.83 141.25
  A 0.15 0.15 0.0 0 1 159.81 141.03
  C 166.45 132.84 173.86 128.19 183.19 124.01
  Q 187.87 121.91 192.14 121.01
  C 206.42 117.98 220.00 119.62 232.91 126.22
  Q 235.56 127.57 238.62 128.60
  Z"></path>
<path fill="#6a9103" d="
  M 265.91 133.09
  Q 270.22 140.41 275.47 148.29
  Q 276.94 150.50 279.01 154.89
  Q 281.19 164.28 281.68 169.50
  C 284.38 198.86 270.67 224.19 244.73 237.67
  Q 226.19 247.30 203.85 245.16
  C 199.18 244.71 193.27 243.27 187.97 242.46
  L 179.17 236.90
  Q 184.32 237.67 189.19 238.99
  Q 191.64 239.66 193.61 239.90
  Q 195.90 240.17 198.10 240.40
  Q 208.06 243.14 215.22 241.91
  Q 220.72 240.97 225.29 239.95
  Q 227.45 239.48 228.29 239.15
  C 231.85 237.78 234.61 237.49 237.90 235.81
  Q 244.95 232.21 248.54 230.00
  Q 250.24 228.95 254.88 224.74
  A 4.67 4.12 6.6 0 1 255.77 224.12
  Q 257.01 223.47 257.22 223.21
  Q 259.81 219.92 262.57 217.27
  A 6.10 5.96 84.1 0 0 263.61 215.96
  L 272.44 200.99
  A 6.53 6.20 -23.3 0 0 273.07 199.52
  C 274.34 195.04 276.27 191.60 276.57 187.62
  C 276.82 184.43 278.02 181.08 277.90 178.26
  Q 277.72 174.08 277.92 170.76
  Q 278.02 169.02 277.55 167.66
  C 276.33 164.10 276.53 160.19 275.43 157.08
  C 274.39 154.10 274.20 150.82 272.97 148.73
  Q 269.99 143.66 267.92 139.08
  A 1.14 1.10 -77.8 0 0 267.77 138.84
  L 260.97 130.36
  A 5.38 3.41 58.0 0 0 260.47 129.81
  L 254.06 123.50
  L 265.91 133.09
  Z"></path>
<path fill="#fe8e52" d="
  M 216.42 156.53
  Q 215.11 153.90 212.34 153.98
  C 209.13 154.07 205.17 153.04 205.27 157.50
  Q 205.45 166.12 205.26 190.64
  Q 203.46 188.72 201.12 188.02
  A 0.43 0.42 -81.5 0 0 200.57 188.43
  L 200.57 194.01
  A 0.95 0.95 0.0 0 1 199.61 194.96
  Q 187.96 194.91 178.27 194.83
  Q 169.19 194.75 166.10 189.10
  Q 171.36 192.16 175.02 192.18
  Q 186.78 192.27 196.92 192.19
  A 0.79 0.79 0.0 0 0 197.71 191.40
  L 197.71 185.97
  A 0.45 0.45 0.0 0 0 197.26 185.52
  L 191.87 185.52
  A 0.31 0.31 0.0 0 1 191.61 185.05
  Q 199.08 172.57 190.22 161.69
  A 4.40 4.28 -0.7 0 0 189.42 160.93
  Q 187.62 159.61 186.46 158.59
  C 182.32 154.94 177.33 155.43 172.06 155.80
  A 0.10 0.10 0.0 0 0 172.04 156.00
  L 172.29 156.05
  A 0.04 0.04 0.0 0 1 172.30 156.12
  Q 171.17 156.69 170.21 156.65
  A 0.70 0.69 8.3 0 0 169.51 157.17
  Q 169.38 157.66 168.83 157.63
  Q 168.50 157.61 167.80 157.93
  Q 166.37 158.60 165.34 159.14
  A 0.68 0.59 -80.0 0 0 165.13 159.31
  L 162.45 162.40
  A 1.52 1.34 -14.9 0 0 162.31 162.61
  C 161.17 165.10 159.82 166.94 159.28 169.84
  Q 157.60 178.81 162.93 185.91
  C 157.05 181.89 156.37 174.10 157.90 167.57
  C 160.42 156.76 164.81 145.04 173.67 137.43
  C 183.63 128.85 199.17 125.46 210.42 132.59
  C 218.27 137.56 223.04 148.49 216.42 156.53
  Z"></path>
<path fill="#fe6a3e" d="
  M 260.13 179.54
  A 57.48 57.34 51.8 0 1 252.64 202.42
  A 57.29 57.25 74.3 0 1 225.77 226.17
  A 57.30 57.26 6.0 0 1 176.69 224.35
  A 57.46 57.22 -6.4 0 1 168.51 219.18
  Q 170.86 211.96 178.40 210.93
  Q 185.71 209.93 193.07 209.24
  Q 201.51 208.45 212.86 204.05
  Q 220.35 201.14 238.38 191.72
  C 239.80 193.79 244.55 193.36 246.33 192.73
  A 1.20 1.18 -87.4 0 0 247.02 192.09
  Q 247.73 190.54 247.75 188.75
  Q 247.99 171.79 247.46 154.71
  Q 248.41 153.16 249.89 153.50
  C 252.11 154.02 253.62 158.07 254.15 159.98
  Q 256.88 169.84 260.13 179.54
  Z"></path>
<path fill="#ffffff" d="
  M 216.42 156.53
  L 225.94 169.51
  A 0.58 0.58 0.0 0 0 226.87 169.51
  L 237.47 155.12
  A 2.58 2.56 13.7 0 1 239.16 154.10
  Q 242.70 153.58 247.46 154.71
  Q 247.99 171.79 247.75 188.75
  Q 247.73 190.54 247.02 192.09
  A 1.20 1.18 -87.4 0 1 246.33 192.73
  C 244.55 193.36 239.80 193.79 238.38 191.72
  L 238.22 172.20
  L 238.25 171.02
  A 0.39 0.39 0.0 0 0 237.55 170.78
  C 234.38 174.99 232.19 179.70 227.78 183.04
  Q 225.94 183.30 224.75 182.48
  A 0.59 0.57 -80.1 0 1 224.50 182.11
  Q 224.36 181.51 223.68 181.46
  A 0.88 0.88 0.0 0 1 223.05 181.12
  L 215.38 170.94
  A 0.36 0.35 26.6 0 0 214.74 171.15
  Q 214.70 178.67 214.67 185.75
  Q 214.65 189.68 214.12 191.48
  A 2.08 2.07 -85.8 0 1 212.43 192.94
  Q 205.98 193.90 205.26 190.64
  Q 205.45 166.12 205.27 157.50
  C 205.17 153.04 209.13 154.07 212.34 153.98
  Q 215.11 153.90 216.42 156.53
  Z"></path>
<path fill="#7db205" d="
  M 187.97 242.46
  C 193.27 243.27 199.18 244.71 203.85 245.16
  Q 226.19 247.30 244.73 237.67
  C 270.67 224.19 284.38 198.86 281.68 169.50
  Q 281.19 164.28 279.01 154.89
  C 295.77 189.04 280.03 229.64 245.55 244.82
  C 227.92 252.58 205.27 252.22 187.97 242.46
  Z"></path>
<path fill="#ffffff" d="
  M 166.10 189.10
  L 162.93 185.91
  Q 157.60 178.81 159.28 169.84
  C 159.82 166.94 161.17 165.10 162.31 162.61
  A 1.52 1.34 -14.9 0 1 162.45 162.40
  L 165.13 159.31
  A 0.68 0.59 -80.0 0 1 165.34 159.14
  Q 166.37 158.60 167.80 157.93
  Q 168.50 157.61 168.83 157.63
  Q 169.38 157.66 169.51 157.17
  A 0.70 0.69 8.3 0 1 170.21 156.65
  Q 171.17 156.69 172.30 156.12
  A 0.04 0.04 0.0 0 0 172.29 156.05
  L 172.04 156.00
  A 0.10 0.10 0.0 0 1 172.06 155.80
  C 177.33 155.43 182.32 154.94 186.46 158.59
  Q 187.62 159.61 189.42 160.93
  A 4.40 4.28 -0.7 0 1 190.22 161.69
  Q 199.08 172.57 191.61 185.05
  A 0.31 0.31 0.0 0 0 191.87 185.52
  L 197.26 185.52
  A 0.45 0.45 0.0 0 1 197.71 185.97
  L 197.71 191.40
  A 0.79 0.79 0.0 0 1 196.92 192.19
  Q 186.78 192.27 175.02 192.18
  Q 171.36 192.16 166.10 189.10
  Z
  M 187.1224 173.7238
  A 10.32 10.20 -2.2 0 0 176.4184 163.9275
  A 10.32 10.20 -2.2 0 0 166.4976 174.5162
  A 10.32 10.20 -2.2 0 0 177.2016 184.3125
  A 10.32 10.20 -2.2 0 0 187.1224 173.7238
  Z"></path>
<ellipse fill="#fe8e52" cx="0.00" cy="0.00" transform="translate(176.81,174.12) rotate(-2.2)" rx="10.32" ry="10.20"></ellipse>
<path fill="#fe6a3e" d="
  M 238.22 172.20
  L 237.65 176.50
  A 2.42 2.42 0.0 0 1 236.99 177.88
  Q 235.41 179.53 234.08 181.77
  C 231.90 185.43 228.91 187.60 225.30 184.68
  A 0.81 0.81 0.0 0 1 225.73 183.25
  L 227.78 183.04
  C 232.19 179.70 234.38 174.99 237.55 170.78
  A 0.39 0.39 0.0 0 1 238.25 171.02
  L 238.22 172.20
  Z"></path>
</svg>